#Comment line ignore any data following # character 
#Hierarchical Translation and Rotation (.htr) file 
[Header]	
#Header keywords are followed by a single value 
FileType HTR		#Single word string
DataType HTRS		#Translation followed by rotation and scale data
FileVersion 1		#integer
NumSegments 84		#integer
NumFrames 2		#integer
DataFrameRate 30		#integer, data frame rate in this file
EulerRotationOrder ZYX
CalibrationUnits mm
RotationUnits Degrees
GlobalAxisofGravity Y
BoneLengthAxis Y
ScaleFactor 1.00
[SegmentNames&Hierarchy]
#CHILD	PARENT
MASTER GLOBAL
root MASTER
chest root
L_mid_tent01 root
R_mid_tent01 root
spine01 root
Bip01_Neck chest
L_humerus chest
R_humerus chest
weapon_bone chest
Bip01_Head Bip01_Neck
eye_left_bone Bip01_Head
eye_right_bone Bip01_Head
L_forearm L_humerus
L_front_hand L_forearm
L_weapon_bone L_forearm
L_front_hand01_01 L_front_hand
L_front_hand02_01 L_front_hand
L_front_hand03_01 L_front_hand
L_front_hand01_02 L_front_hand01_01
L_front_hand02_02 L_front_hand02_01
L_front_hand03_02 L_front_hand03_01
R_forearm R_humerus
R_front_hand R_forearm
R_weapon_bone R_forearm
R_front_hand01_01 R_front_hand
R_front_hand02_01 R_front_hand
R_front_hand03_01 R_front_hand
R_front_hand01_02 R_front_hand01_01
R_front_hand02_02 R_front_hand02_01
R_front_hand03_02 R_front_hand03_01
null_rope01_connect L_mid_tent01
Rope1_Seg01 null_rope01_connect
Rope1_Seg02 Rope1_Seg01
Rope1_Seg03 Rope1_Seg02
Rope1_Seg04 Rope1_Seg03
Rope1_Seg05 Rope1_Seg04
Rope1_Seg06 Rope1_Seg05
Rope1_Seg07 Rope1_Seg06
Rope1_Seg09 Rope1_Seg07
L_mid_hand01 Rope1_Seg09
L_mid_hand02 Rope1_Seg09
L_mid_hand03 Rope1_Seg09
null_rope02_connect R_mid_tent01
Rope2_Seg01 null_rope02_connect
Rope2_Seg02 Rope2_Seg01
Rope2_Seg03 Rope2_Seg02
Rope2_Seg04 Rope2_Seg03
Rope2_Seg05 Rope2_Seg04
Rope2_Seg06 Rope2_Seg05
Rope2_Seg07 Rope2_Seg06
Rope2_Seg09 Rope2_Seg07
R_mid_hand01 Rope2_Seg09
R_mid_hand02 Rope2_Seg09
R_mid_hand03 Rope2_Seg09
spine02 spine01
spine03 spine02
pelvis spine03
null_rope03_connect pelvis
null_rope04_connect pelvis
Rope3_Seg01 null_rope03_connect
Rope3_Seg02 Rope3_Seg01
Rope3_Seg03 Rope3_Seg02
Rope3_Seg04 Rope3_Seg03
Rope3_Seg05 Rope3_Seg04
Rope3_Seg06 Rope3_Seg05
Rope3_Seg07 Rope3_Seg06
Rope3_Seg08 Rope3_Seg07
Rope3_Seg09 Rope3_Seg08
R_rear_hand01 Rope3_Seg09
R_rear_hand02 Rope3_Seg09
R_rear_hand03 Rope3_Seg09
Rope4_Seg01 null_rope04_connect
Rope4_Seg02 Rope4_Seg01
Rope4_Seg03 Rope4_Seg02
Rope4_Seg04 Rope4_Seg03
Rope4_Seg05 Rope4_Seg04
Rope4_Seg06 Rope4_Seg05
Rope4_Seg07 Rope4_Seg06
Rope4_Seg08 Rope4_Seg07
Rope4_Seg09 Rope4_Seg08
L_rear_hand01 Rope4_Seg09
L_rear_hand02 Rope4_Seg09
L_rear_hand03 Rope4_Seg09
[BasePosition]
#SegmentName Tx, Ty, Tz, Rx, Ry, Rz, BoneLength
MASTER 0.000000 0.000000 0.000000 -90.000000 0.000000 0.000000 10.000000 
root 0.000000 0.000000 0.000000 0.000000 0.000000 0.000000 10.000000 
chest 0.000000 0.000000 0.000000 0.000000 0.000000 0.000000 10.000000 
L_mid_tent01 0.000000 0.000000 0.000000 0.000000 0.000000 0.000000 10.000000 
R_mid_tent01 0.000000 0.000000 0.000000 0.000000 0.000000 0.000000 10.000000 
spine01 0.000000 0.000000 0.000000 0.000000 0.000000 0.000000 10.000000 
Bip01_Neck 0.000000 0.000000 0.000000 0.000000 0.000000 0.000000 10.000000 
L_humerus 0.000000 0.000000 0.000000 0.000000 0.000000 0.000000 10.000000 
R_humerus 0.000000 0.000000 0.000000 0.000000 0.000000 0.000000 10.000000 
weapon_bone 0.000000 0.000000 0.000000 0.000000 0.000000 0.000000 10.000000 
Bip01_Head 0.000000 0.000000 0.000000 0.000000 0.000000 0.000000 10.000000 
eye_left_bone 0.000000 0.000000 0.000000 0.000000 0.000000 0.000000 10.000000 
eye_right_bone 0.000000 0.000000 0.000000 0.000000 0.000000 0.000000 10.000000 
L_forearm 0.000000 0.000000 0.000000 0.000000 0.000000 0.000000 10.000000 
L_front_hand 0.000000 0.000000 0.000000 0.000000 0.000000 0.000000 10.000000 
L_weapon_bone 0.000000 0.000000 0.000000 0.000000 0.000000 0.000000 10.000000 
L_front_hand01_01 0.000000 0.000000 0.000000 0.000000 0.000000 0.000000 10.000000 
L_front_hand02_01 0.000000 0.000000 0.000000 0.000000 0.000000 0.000000 10.000000 
L_front_hand03_01 0.000000 0.000000 0.000000 0.000000 0.000000 0.000000 10.000000 
L_front_hand01_02 0.000000 0.000000 0.000000 0.000000 0.000000 0.000000 10.000000 
L_front_hand02_02 0.000000 0.000000 0.000000 0.000000 0.000000 0.000000 10.000000 
L_front_hand03_02 0.000000 0.000000 0.000000 0.000000 0.000000 0.000000 10.000000 
R_forearm 0.000000 0.000000 0.000000 0.000000 0.000000 0.000000 10.000000 
R_front_hand 0.000000 0.000000 0.000000 0.000000 0.000000 0.000000 10.000000 
R_weapon_bone 0.000000 0.000000 0.000000 0.000000 0.000000 0.000000 10.000000 
R_front_hand01_01 0.000000 0.000000 0.000000 0.000000 0.000000 0.000000 10.000000 
R_front_hand02_01 0.000000 0.000000 0.000000 0.000000 0.000000 0.000000 10.000000 
R_front_hand03_01 0.000000 0.000000 0.000000 0.000000 0.000000 0.000000 10.000000 
R_front_hand01_02 0.000000 0.000000 0.000000 0.000000 0.000000 0.000000 10.000000 
R_front_hand02_02 0.000000 0.000000 0.000000 0.000000 0.000000 0.000000 10.000000 
R_front_hand03_02 0.000000 0.000000 0.000000 0.000000 0.000000 0.000000 10.000000 
null_rope01_connect 0.000000 0.000000 0.000000 0.000000 0.000000 0.000000 10.000000 
Rope1_Seg01 0.000000 0.000000 0.000000 0.000000 0.000000 0.000000 10.000000 
Rope1_Seg02 0.000000 0.000000 0.000000 0.000000 0.000000 0.000000 10.000000 
Rope1_Seg03 0.000000 0.000000 0.000000 0.000000 0.000000 0.000000 10.000000 
Rope1_Seg04 0.000000 0.000000 0.000000 0.000000 0.000000 0.000000 10.000000 
Rope1_Seg05 0.000000 0.000000 0.000000 0.000000 0.000000 0.000000 10.000000 
Rope1_Seg06 0.000000 0.000000 0.000000 0.000000 0.000000 0.000000 10.000000 
Rope1_Seg07 0.000000 0.000000 0.000000 0.000000 0.000000 0.000000 10.000000 
Rope1_Seg09 0.000000 0.000000 0.000000 0.000000 0.000000 0.000000 10.000000 
L_mid_hand01 0.000000 0.000000 0.000000 0.000000 0.000000 0.000000 10.000000 
L_mid_hand02 0.000000 0.000000 0.000000 0.000000 0.000000 0.000000 10.000000 
L_mid_hand03 0.000000 0.000000 0.000000 0.000000 0.000000 0.000000 10.000000 
null_rope02_connect 0.000000 0.000000 0.000000 0.000000 0.000000 0.000000 10.000000 
Rope2_Seg01 0.000000 0.000000 0.000000 0.000000 0.000000 0.000000 10.000000 
Rope2_Seg02 0.000000 0.000000 0.000000 0.000000 0.000000 0.000000 10.000000 
Rope2_Seg03 0.000000 0.000000 0.000000 0.000000 0.000000 0.000000 10.000000 
Rope2_Seg04 0.000000 0.000000 0.000000 0.000000 0.000000 0.000000 10.000000 
Rope2_Seg05 0.000000 0.000000 0.000000 0.000000 0.000000 0.000000 10.000000 
Rope2_Seg06 0.000000 0.000000 0.000000 0.000000 0.000000 0.000000 10.000000 
Rope2_Seg07 0.000000 0.000000 0.000000 0.000000 0.000000 0.000000 10.000000 
Rope2_Seg09 0.000000 0.000000 0.000000 0.000000 0.000000 0.000000 10.000000 
R_mid_hand01 0.000000 0.000000 0.000000 0.000000 0.000000 0.000000 10.000000 
R_mid_hand02 0.000000 0.000000 0.000000 0.000000 0.000000 0.000000 10.000000 
R_mid_hand03 0.000000 0.000000 0.000000 0.000000 0.000000 0.000000 10.000000 
spine02 0.000000 0.000000 0.000000 0.000000 0.000000 0.000000 10.000000 
spine03 0.000000 0.000000 0.000000 0.000000 0.000000 0.000000 10.000000 
pelvis 0.000000 0.000000 0.000000 0.000000 0.000000 0.000000 10.000000 
null_rope03_connect 0.000000 0.000000 0.000000 0.000000 0.000000 0.000000 10.000000 
null_rope04_connect 0.000000 0.000000 0.000000 0.000000 0.000000 0.000000 10.000000 
Rope3_Seg01 0.000000 0.000000 0.000000 0.000000 0.000000 0.000000 10.000000 
Rope3_Seg02 0.000000 0.000000 0.000000 0.000000 0.000000 0.000000 10.000000 
Rope3_Seg03 0.000000 0.000000 0.000000 0.000000 0.000000 0.000000 10.000000 
Rope3_Seg04 0.000000 0.000000 0.000000 0.000000 0.000000 0.000000 10.000000 
Rope3_Seg05 0.000000 0.000000 0.000000 0.000000 0.000000 0.000000 10.000000 
Rope3_Seg06 0.000000 0.000000 0.000000 0.000000 0.000000 0.000000 10.000000 
Rope3_Seg07 0.000000 0.000000 0.000000 0.000000 0.000000 0.000000 10.000000 
Rope3_Seg08 0.000000 0.000000 0.000000 0.000000 0.000000 0.000000 10.000000 
Rope3_Seg09 0.000000 0.000000 0.000000 0.000000 0.000000 0.000000 10.000000 
R_rear_hand01 0.000000 0.000000 0.000000 0.000000 0.000000 0.000000 10.000000 
R_rear_hand02 0.000000 0.000000 0.000000 0.000000 0.000000 0.000000 10.000000 
R_rear_hand03 0.000000 0.000000 0.000000 0.000000 0.000000 0.000000 10.000000 
Rope4_Seg01 0.000000 0.000000 0.000000 0.000000 0.000000 0.000000 10.000000 
Rope4_Seg02 0.000000 0.000000 0.000000 0.000000 0.000000 0.000000 10.000000 
Rope4_Seg03 0.000000 0.000000 0.000000 0.000000 0.000000 0.000000 10.000000 
Rope4_Seg04 0.000000 0.000000 0.000000 0.000000 0.000000 0.000000 10.000000 
Rope4_Seg05 0.000000 0.000000 0.000000 0.000000 0.000000 0.000000 10.000000 
Rope4_Seg06 0.000000 0.000000 0.000000 0.000000 0.000000 0.000000 10.000000 
Rope4_Seg07 0.000000 0.000000 0.000000 0.000000 0.000000 0.000000 10.000000 
Rope4_Seg08 0.000000 0.000000 0.000000 0.000000 0.000000 0.000000 10.000000 
Rope4_Seg09 0.000000 0.000000 0.000000 0.000000 0.000000 0.000000 10.000000 
L_rear_hand01 0.000000 0.000000 0.000000 0.000000 0.000000 0.000000 10.000000 
L_rear_hand02 0.000000 0.000000 0.000000 0.000000 0.000000 0.000000 10.000000 
L_rear_hand03 0.000000 0.000000 0.000000 0.000000 0.000000 0.000000 10.000000 
#Beginning of Data. Separated by tabs
#Fr	Tx	Ty	Tz	Rx	Ry	Rz	SF
[MASTER]
11 -1692.746338 2752.157471 1632.493896 0.001660 0.001660 0.001660 3620.054932
12 -1887.061157 2996.957520 1728.123413 0.001660 0.001660 0.001660 3940.706055
[root]
11 -29.992676 -28.744812 1482.583252 -51.032230 -15.204474 -103.459244 1483.165161
12 -31.772617 -32.596443 1487.103760 -48.640541 -15.788267 -104.280754 1487.800171
[chest]
11 -84.512650 -34.090519 0.000000 22.510942 5.715540 149.048370 91.129311
12 -84.512650 -34.090519 0.000000 23.950914 5.776019 148.032211 91.129311
[L_mid_tent01]
11 27.298956 22.179182 -249.918884 3.604376 13.691131 81.247864 252.381836
12 27.298944 22.179174 -249.918900 3.037239 16.138313 80.613770 252.381851
[R_mid_tent01]
11 23.228794 24.509907 226.238495 161.126892 -26.502102 85.114937 228.744751
12 23.228794 24.509907 226.238495 157.927261 -40.790516 90.488289 228.744751
[spine01]
11 -0.361383 -0.195265 0.000000 0.002061 0.001124 32.802483 0.410763
12 -0.361383 -0.195265 0.000000 0.002060 0.001125 32.699398 0.410763
[Bip01_Neck]
11 165.484543 71.581718 0.000119 176.643677 -1.657967 43.431911 180.302734
12 165.484543 71.581718 0.000119 176.643677 -1.657967 43.431911 180.302734
[L_humerus]
11 -13.983130 -135.272980 -120.471481 -7.039400 63.862324 82.803917 181.680161
12 -13.983130 -135.272980 -120.471481 -7.070988 63.719852 82.769905 181.680161
[R_humerus]
11 -13.983309 -135.273102 125.287651 25.644770 -64.646278 70.079170 184.909012
12 -13.983309 -135.273102 125.287651 25.590258 -64.500420 70.137939 184.909012
[weapon_bone]
11 235.964890 -300.705902 0.000000 0.000000 -89.951546 -128.212341 382.234833
12 235.964890 -300.705902 0.000000 0.000000 -89.951546 -128.212341 382.234833
[Bip01_Head]
11 213.625793 185.209641 18.310547 4.971896 5.703756 -43.874699 283.326447
12 213.660126 185.113831 19.547422 4.967037 4.250798 -43.886795 283.372314
[eye_left_bone]
11 -24.626970 125.451866 -64.772606 0.000000 -90.000000 -99.840431 143.318359
12 -24.626970 125.451866 -64.772606 0.000000 -90.000000 -99.840431 143.318359
[eye_right_bone]
11 -24.626970 125.451866 64.327362 0.000000 -89.965736 80.156380 143.117676
12 -24.626970 125.451866 64.327362 0.000000 -89.965736 80.156380 143.117676
[L_forearm]
11 322.776093 0.000000 -0.000119 0.000430 -0.002308 -111.110794 322.776093
12 322.776093 0.000000 -0.000119 0.000431 -0.002307 -111.167755 322.776093
[L_front_hand]
11 241.149185 -0.042021 -3.300071 -178.667953 -1.835447 -27.422350 241.171753
12 241.149185 -0.042021 -3.300071 -178.667953 -1.835447 -27.422350 241.171753
[L_weapon_bone]
11 156.183838 0.000000 0.000000 0.000014 0.000007 0.000001 156.183838
12 156.183838 0.000000 0.000000 0.000014 0.000007 0.000001 156.183838
[L_front_hand01_01]
11 86.095154 20.947098 -0.655860 -0.282467 -0.528169 66.067474 88.609184
12 86.095154 20.947098 -0.655860 -0.274633 -0.532782 65.272827 88.609184
[L_front_hand02_01]
11 86.935165 -11.437475 24.513514 141.960785 -54.937954 -46.642345 91.046425
12 86.935165 -11.437475 24.513514 141.090271 -54.445614 -45.572052 91.046425
[L_front_hand03_01]
11 86.637497 -14.123976 -20.424902 -142.303543 53.163303 -48.671032 90.126129
12 86.637497 -14.123976 -20.424902 -141.476303 52.677540 -47.637543 90.126129
[L_front_hand01_02]
11 71.020905 -0.000179 0.000030 0.000315 -0.002326 -105.442802 71.020905
12 71.020905 -0.000179 0.000030 0.000315 -0.002326 -105.419182 71.020905
[L_front_hand02_02]
11 71.020927 -0.000119 0.000060 0.000315 -0.002326 -105.442802 71.020927
12 71.020927 -0.000119 0.000060 0.000315 -0.002326 -105.419182 71.020927
[L_front_hand03_02]
11 71.020905 -0.000060 0.000060 0.000315 -0.002326 -105.442802 71.020905
12 71.020905 -0.000060 0.000060 0.000315 -0.002326 -105.419182 71.020905
[R_forearm]
11 322.776428 -0.000060 0.000030 0.201102 0.068184 -109.782852 322.776428
12 322.776428 -0.000060 0.000030 0.201080 0.068247 -109.819138 322.776428
[R_front_hand]
11 238.847015 -0.006795 2.210259 -2.635298 -10.645461 -26.312506 238.857239
12 238.847015 -0.006795 2.210259 -2.635298 -10.645461 -26.312506 238.857239
[R_weapon_bone]
11 155.664093 0.002503 -0.000030 0.003487 0.001180 -90.988930 155.664078
12 155.664093 0.002503 -0.000030 0.003487 0.001180 -90.988930 155.664078
[R_front_hand01_01]
11 87.624611 14.231146 22.918642 -141.947067 -54.924736 46.726738 91.683487
12 87.624611 14.231146 22.918642 -140.500656 -54.097115 44.955364 91.683487
[R_front_hand02_01]
11 89.356956 14.367283 -19.491137 142.634140 53.329124 49.315857 92.579636
12 89.356956 14.367283 -19.491137 141.255966 52.517570 47.591045 92.579636
[R_front_hand03_01]
11 87.286232 -22.307278 -0.143439 0.092230 -0.445770 -66.286453 90.091743
12 87.286232 -22.307278 -0.143439 0.080269 -0.445286 -64.968231 90.091743
[R_front_hand01_02]
11 71.020905 0.000060 0.000119 0.002323 -0.000334 106.381714 71.020905
12 71.020905 0.000060 0.000119 0.002323 -0.000334 106.381714 71.020905
[R_front_hand02_02]
11 71.020844 -0.000030 -0.000119 0.002323 -0.000334 106.381714 71.020836
12 71.020844 -0.000030 -0.000119 0.002323 -0.000334 106.381714 71.020836
[R_front_hand03_02]
11 71.020905 0.000000 0.000030 0.002323 -0.000334 106.381714 71.020905
12 71.020905 0.000000 0.000030 0.002323 -0.000334 106.381714 71.020905
[null_rope01_connect]
11 328.732483 0.000000 -0.000238 -22.986643 -61.013233 48.613094 328.732483
12 328.732483 0.000000 -0.000238 -23.898603 -60.876610 50.816887 328.732483
[Rope1_Seg01]
11 0.000000 0.000000 0.000000 -21.311733 20.411867 -39.861824 0.000000
12 0.000000 0.000000 0.000000 -26.034740 27.428761 -47.113541 0.000000
[Rope1_Seg02]
11 139.999863 -0.000179 0.000000 -0.448079 2.875261 -1.360223 139.999863
12 139.999863 -0.000179 0.000000 -2.212765 4.104648 2.580644 139.999863
[Rope1_Seg03]
11 139.999924 0.000060 -0.000060 -1.370218 6.225758 -2.723133 139.999924
12 139.999924 0.000060 -0.000060 -8.033567 15.714205 7.713150 139.999924
[Rope1_Seg04]
11 139.999924 -0.000060 -0.000119 -3.629404 10.891459 -4.958396 139.999924
12 139.999924 -0.000060 -0.000119 6.411865 -16.740124 -2.124285 139.999924
[Rope1_Seg05]
11 139.999832 0.000119 -0.000060 3.822699 -11.491505 2.551512 139.999832
12 139.999832 0.000119 -0.000060 3.592562 -13.202938 -2.880076 139.999832
[Rope1_Seg06]
11 139.999954 0.000119 -0.000060 0.670565 -2.485065 0.635167 139.999954
12 139.999954 0.000119 -0.000060 0.717479 -4.536964 -0.452435 139.999954
[Rope1_Seg07]
11 139.999985 0.000060 0.000000 0.338900 -1.324859 0.348914 139.999985
12 139.999985 0.000060 0.000000 0.251915 -1.966452 -0.170842 139.999985
[Rope1_Seg09]
11 121.602913 0.000119 -0.000089 -89.793175 -1.359789 0.847147 121.602913
12 121.602913 0.000119 -0.000089 -89.793175 -1.359789 0.847147 121.602913
[L_mid_hand01]
11 103.859421 1.038730 8.195221 110.016693 -43.583393 -14.630751 104.187431
12 103.859421 1.038730 8.195221 111.216125 -46.770245 -16.325298 104.187431
[L_mid_hand02]
11 105.572853 -4.139662 -10.864139 -148.402451 33.171711 -41.059566 106.211075
12 105.572853 -4.139662 -10.864139 -150.384232 34.904911 -44.592556 106.211075
[L_mid_hand03]
11 104.641464 17.579376 -3.913581 -13.575850 13.082139 47.042397 106.179977
12 104.641464 17.579376 -3.913581 -12.781249 13.855401 50.452690 106.179977
[null_rope02_connect]
11 328.732849 0.000179 -0.000119 -147.564941 32.104607 -7.158770 328.732849
12 328.732849 0.000179 -0.000119 -144.607330 15.688226 -8.429092 328.732849
[Rope2_Seg01]
11 0.000048 0.000114 0.000000 122.854645 51.855228 -106.405113 0.000124
12 0.000049 0.000111 0.000000 136.259964 50.457451 -90.446884 0.000121
[Rope2_Seg02]
11 139.999741 -0.000060 -0.000119 0.771652 5.056262 -3.762087 139.999756
12 139.999741 -0.000060 -0.000119 1.634066 2.425591 -3.071023 139.999756
[Rope2_Seg03]
11 140.000107 0.000030 0.000000 1.870835 8.196896 -6.344204 140.000107
12 140.000107 0.000030 0.000000 3.130048 3.575567 -4.822363 140.000107
[Rope2_Seg04]
11 139.999802 0.000000 -0.000060 23.399914 19.865864 -20.638206 139.999802
12 139.999802 0.000000 -0.000060 17.375238 7.508980 -15.244477 139.999802
[Rope2_Seg05]
11 139.999985 -0.000060 0.000119 91.812447 10.161505 -26.690626 139.999985
12 139.999985 -0.000060 0.000119 29.663280 5.822013 -15.042814 139.999985
[Rope2_Seg06]
11 139.999893 -0.000030 -0.000119 -141.667557 36.531563 -3.377608 139.999893
12 139.999893 -0.000030 -0.000119 -61.728695 19.245537 21.613604 139.999893
[Rope2_Seg07]
11 139.999893 0.000060 -0.000060 -13.154577 -17.665209 17.754862 139.999893
12 139.999893 0.000060 -0.000060 -12.088572 -2.974852 10.399130 139.999893
[Rope2_Seg09]
11 121.338966 0.000089 -0.000060 33.793236 -1.359788 -0.847141 121.338966
12 121.338966 0.000089 -0.000060 33.793236 -1.359788 -0.847141 121.338966
[R_mid_hand01]
11 104.680779 11.144459 -10.335981 -36.116535 33.174706 39.598408 105.778534
12 104.680779 11.144459 -10.335981 -36.922554 32.243565 38.107742 105.778534
[R_mid_hand02]
11 104.070427 2.443552 8.231699 69.680679 -44.419243 15.065832 104.424065
12 104.070427 2.443552 8.231699 70.193451 -42.958271 14.324638 104.424065
[R_mid_hand03]
11 106.028137 -11.221827 -5.996406 -170.354065 12.593579 -49.350628 106.788818
12 106.028137 -11.221827 -5.996406 -170.013962 12.325404 -47.779564 106.788818
[spine02]
11 129.756927 0.001550 0.000119 0.530191 -4.024908 -15.374445 129.756927
12 129.756927 0.001550 0.000119 0.537560 -4.023919 -15.444612 129.756927
[spine03]
11 78.614182 0.081749 -4.899074 1.995888 3.780540 17.997084 78.766724
12 78.614197 0.081745 -4.899081 1.999596 3.776836 18.047235 78.766739
[pelvis]
11 169.435242 0.051022 0.000000 -0.070208 -0.177785 17.188129 169.435257
12 169.435242 0.051022 0.000000 -0.070348 -0.177729 17.278177 169.435257
[null_rope03_connect]
11 -1.257226 -2.466202 137.391083 -1.791065 -51.310726 58.977421 137.418976
12 -1.257226 -2.466202 137.391083 -0.827699 -49.200542 59.220802 137.418976
[null_rope04_connect]
11 -1.259640 -2.480268 -137.844437 -1.791065 -51.310726 58.977421 137.872513
12 -1.259640 -2.480268 -137.844437 -0.827699 -49.200542 59.220802 137.872513
[Rope3_Seg01]
11 0.000017 -0.000095 -0.000153 -140.880127 45.159897 -85.968010 0.000181
12 0.000016 -0.000113 -0.000153 -137.507645 40.144466 -82.936478 0.000190
[Rope3_Seg02]
11 139.999924 -0.000119 0.000060 0.602362 -3.195854 -7.481520 139.999924
12 139.999924 -0.000119 0.000060 0.612159 -3.861124 -8.672339 139.999924
[Rope3_Seg03]
11 139.999924 -0.000119 0.000119 0.372661 -3.097372 -7.112650 139.999924
12 139.999924 -0.000119 0.000119 0.332765 -3.639449 -8.066274 139.999924
[Rope3_Seg04]
11 139.999924 0.000119 0.000000 0.274146 -4.537512 -9.488545 139.999924
12 139.999924 0.000119 0.000000 0.050387 -4.349739 -10.283738 139.999924
[Rope3_Seg05]
11 139.999924 -0.000238 0.000060 0.068615 -2.912317 -6.330879 139.999924
12 139.999924 -0.000238 0.000060 -0.025911 -2.182509 -4.787528 139.999924
[Rope3_Seg06]
11 139.999893 -0.000119 -0.000060 0.296760 1.122206 0.840440 139.999893
12 139.999893 -0.000119 -0.000060 0.721133 0.143679 1.797957 139.999893
[Rope3_Seg07]
11 139.999771 0.000060 -0.000119 0.817328 5.075064 7.424441 139.999771
12 139.999771 0.000060 -0.000119 1.222240 1.782297 6.786555 139.999771
[Rope3_Seg08]
11 139.999985 -0.000060 0.000000 0.660934 3.475182 4.589966 139.999985
12 139.999985 -0.000060 0.000000 0.820667 0.703000 3.637597 139.999985
[Rope3_Seg09]
11 90.185997 -0.000179 -0.000060 89.793228 -1.359877 -0.847183 90.185997
12 90.185997 -0.000179 -0.000060 89.793228 -1.359877 -0.847183 90.185997
[R_rear_hand01]
11 103.366196 -6.073594 -10.757982 -165.009155 19.819437 -41.100956 104.101845
12 103.366196 -6.073594 -10.757982 -164.755127 19.627697 -40.352161 104.101845
[R_rear_hand02]
11 100.509819 12.039542 -7.992327 -30.502344 25.155792 38.836960 101.543350
12 100.509819 12.039542 -7.992327 -30.792652 24.782450 38.141541 101.543350
[R_rear_hand03]
11 101.539970 5.215704 5.435467 82.364601 -41.773376 8.967985 101.819031
12 101.539970 5.215704 5.435467 82.448349 -41.048256 8.840383 101.819031
[Rope4_Seg01]
11 0.000005 -0.000334 -0.000153 63.342094 18.790770 -49.821301 0.000367
12 0.000004 -0.000363 -0.000153 60.170223 17.324133 -55.425728 0.000394
[Rope4_Seg02]
11 139.999985 0.000060 0.000119 13.653976 -4.582490 -16.435200 139.999985
12 139.999985 0.000060 0.000119 12.844588 -1.050419 -15.728273 139.999985
[Rope4_Seg03]
11 139.999924 0.000000 -0.000238 5.035105 -5.047161 -9.347718 139.999924
12 139.999924 0.000000 -0.000238 5.133334 -3.124238 -9.027139 139.999924
[Rope4_Seg04]
11 139.999985 0.000000 0.000119 2.977667 -4.844872 -7.591949 139.999985
12 139.999985 0.000000 0.000119 2.518723 -2.848070 -5.793606 139.999985
[Rope4_Seg05]
11 139.999802 -0.000060 -0.000119 0.282568 -0.604834 -0.746649 139.999802
12 139.999802 -0.000060 -0.000119 0.243485 0.422348 -0.140870 139.999802
[Rope4_Seg06]
11 139.999924 0.000000 0.000060 -0.968670 2.452797 3.686869 139.999924
12 139.999924 0.000000 0.000060 -1.134393 3.517286 4.119328 139.999924
[Rope4_Seg07]
11 139.999802 0.000000 0.000000 -4.625641 7.789903 12.118798 139.999802
12 139.999802 0.000000 0.000000 -5.494561 9.391994 12.379349 139.999802
[Rope4_Seg08]
11 139.999924 0.000000 0.000119 -9.514309 5.945146 11.544679 139.999924
12 139.999924 0.000000 0.000119 -11.684669 7.353789 11.757063 139.999924
[Rope4_Seg09]
11 90.185791 0.000060 0.000060 -135.617828 2.228885 0.850567 90.185791
12 90.185791 0.000060 0.000060 -135.617828 2.228885 0.850567 90.185791
[L_rear_hand01]
11 101.696655 -8.392275 -7.654577 -28.015862 -27.942142 135.607529 102.329041
12 101.696655 -8.392275 -7.654577 -26.077669 -29.734318 131.595917 102.329041
[L_rear_hand02]
11 102.726799 -1.568258 5.773216 81.577332 47.415264 169.913025 102.900848
12 102.726799 -1.568258 5.773216 80.880585 51.310986 168.994995 102.900848
[L_rear_hand03]
11 104.552910 9.721220 -10.420293 -167.078079 -21.194330 -132.993347 105.519653
12 104.552910 9.721220 -10.420293 -168.606277 -22.023737 -128.845825 105.519653
